<mxfile host="app.diagrams.net" modified="2023-12-17T16:11:03.872Z" agent="Mozilla/5.0 (Macintosh; Intel Mac OS X 10_15_7) AppleWebKit/605.1.15 (KHTML, like Gecko) Version/16.6 Safari/605.1.15" etag="dLCAYgAPoAS6RTgiaxbb" version="22.1.11" type="github">
  <diagram id="C5RBs43oDa-KdzZeNtuy" name="Page-1">
    <mxGraphModel dx="1026" dy="681" grid="1" gridSize="10" guides="1" tooltips="1" connect="1" arrows="1" fold="1" page="1" pageScale="1" pageWidth="827" pageHeight="1169" math="0" shadow="0">
      <root>
        <mxCell id="WIyWlLk6GJQsqaUBKTNV-0" />
        <mxCell id="WIyWlLk6GJQsqaUBKTNV-1" parent="WIyWlLk6GJQsqaUBKTNV-0" />
        <mxCell id="zgXLXJdNspanAzjS0xrs-16" style="edgeStyle=orthogonalEdgeStyle;rounded=0;orthogonalLoop=1;jettySize=auto;html=1;exitX=0.5;exitY=1;exitDx=0;exitDy=0;exitPerimeter=0;entryX=0.5;entryY=0;entryDx=0;entryDy=0;" edge="1" parent="WIyWlLk6GJQsqaUBKTNV-1" source="zgXLXJdNspanAzjS0xrs-0" target="zgXLXJdNspanAzjS0xrs-1">
          <mxGeometry relative="1" as="geometry" />
        </mxCell>
        <mxCell id="zgXLXJdNspanAzjS0xrs-0" value="시작" style="strokeWidth=2;html=1;shape=mxgraph.flowchart.terminator;whiteSpace=wrap;" vertex="1" parent="WIyWlLk6GJQsqaUBKTNV-1">
          <mxGeometry x="142.5" y="40" width="70" height="40" as="geometry" />
        </mxCell>
        <mxCell id="zgXLXJdNspanAzjS0xrs-17" style="edgeStyle=orthogonalEdgeStyle;rounded=0;orthogonalLoop=1;jettySize=auto;html=1;exitX=0.5;exitY=1;exitDx=0;exitDy=0;entryX=0.5;entryY=0;entryDx=0;entryDy=0;" edge="1" parent="WIyWlLk6GJQsqaUBKTNV-1" source="zgXLXJdNspanAzjS0xrs-1" target="zgXLXJdNspanAzjS0xrs-2">
          <mxGeometry relative="1" as="geometry" />
        </mxCell>
        <mxCell id="zgXLXJdNspanAzjS0xrs-1" value="&#39;__d(&#39; 탐색&lt;br&gt;기준 = &#39;__d(&#39;의 인덱스" style="rounded=0;whiteSpace=wrap;html=1;" vertex="1" parent="WIyWlLk6GJQsqaUBKTNV-1">
          <mxGeometry x="75" y="100" width="205" height="50" as="geometry" />
        </mxCell>
        <mxCell id="zgXLXJdNspanAzjS0xrs-18" style="edgeStyle=orthogonalEdgeStyle;rounded=0;orthogonalLoop=1;jettySize=auto;html=1;exitX=0.5;exitY=1;exitDx=0;exitDy=0;" edge="1" parent="WIyWlLk6GJQsqaUBKTNV-1" source="zgXLXJdNspanAzjS0xrs-2" target="zgXLXJdNspanAzjS0xrs-3">
          <mxGeometry relative="1" as="geometry" />
        </mxCell>
        <mxCell id="zgXLXJdNspanAzjS0xrs-2" value="&#39;기준&#39;을 기준으로 (이전 코드)와 난독화의 대상이 되는 (이후 코드)로 토큰열을 나눔" style="rounded=0;whiteSpace=wrap;html=1;" vertex="1" parent="WIyWlLk6GJQsqaUBKTNV-1">
          <mxGeometry x="75" y="170" width="205" height="50" as="geometry" />
        </mxCell>
        <mxCell id="zgXLXJdNspanAzjS0xrs-19" style="edgeStyle=orthogonalEdgeStyle;rounded=0;orthogonalLoop=1;jettySize=auto;html=1;exitX=0.5;exitY=1;exitDx=0;exitDy=0;entryX=0.5;entryY=0;entryDx=0;entryDy=0;" edge="1" parent="WIyWlLk6GJQsqaUBKTNV-1" source="zgXLXJdNspanAzjS0xrs-3" target="zgXLXJdNspanAzjS0xrs-5">
          <mxGeometry relative="1" as="geometry" />
        </mxCell>
        <mxCell id="zgXLXJdNspanAzjS0xrs-3" value="(이후 코드)는 토큰열을 하나의 문자열로 변환. 개행을 기준으로 다시 분할." style="rounded=0;whiteSpace=wrap;html=1;" vertex="1" parent="WIyWlLk6GJQsqaUBKTNV-1">
          <mxGeometry x="75" y="240" width="205" height="50" as="geometry" />
        </mxCell>
        <mxCell id="zgXLXJdNspanAzjS0xrs-20" style="edgeStyle=orthogonalEdgeStyle;rounded=0;orthogonalLoop=1;jettySize=auto;html=1;exitX=0.5;exitY=1;exitDx=0;exitDy=0;" edge="1" parent="WIyWlLk6GJQsqaUBKTNV-1" source="zgXLXJdNspanAzjS0xrs-5">
          <mxGeometry relative="1" as="geometry">
            <mxPoint x="177.47826086956525" y="390" as="targetPoint" />
          </mxGeometry>
        </mxCell>
        <mxCell id="zgXLXJdNspanAzjS0xrs-5" value="(이후 코드)에 대해" style="rounded=0;whiteSpace=wrap;html=1;" vertex="1" parent="WIyWlLk6GJQsqaUBKTNV-1">
          <mxGeometry x="75" y="310" width="205" height="50" as="geometry" />
        </mxCell>
        <mxCell id="zgXLXJdNspanAzjS0xrs-21" style="edgeStyle=orthogonalEdgeStyle;rounded=0;orthogonalLoop=1;jettySize=auto;html=1;exitX=1;exitY=0.5;exitDx=0;exitDy=0;exitPerimeter=0;" edge="1" parent="WIyWlLk6GJQsqaUBKTNV-1" source="zgXLXJdNspanAzjS0xrs-6">
          <mxGeometry relative="1" as="geometry">
            <mxPoint x="310" y="427.69565217391323" as="targetPoint" />
          </mxGeometry>
        </mxCell>
        <mxCell id="zgXLXJdNspanAzjS0xrs-6" value="반복이 처음" style="strokeWidth=2;html=1;shape=mxgraph.flowchart.decision;whiteSpace=wrap;" vertex="1" parent="WIyWlLk6GJQsqaUBKTNV-1">
          <mxGeometry x="77.5" y="393" width="200" height="70" as="geometry" />
        </mxCell>
        <mxCell id="zgXLXJdNspanAzjS0xrs-23" style="edgeStyle=orthogonalEdgeStyle;rounded=0;orthogonalLoop=1;jettySize=auto;html=1;exitX=1;exitY=0.5;exitDx=0;exitDy=0;" edge="1" parent="WIyWlLk6GJQsqaUBKTNV-1" source="zgXLXJdNspanAzjS0xrs-7">
          <mxGeometry relative="1" as="geometry">
            <mxPoint x="180" y="370" as="targetPoint" />
            <Array as="points">
              <mxPoint x="536" y="428" />
              <mxPoint x="536" y="370" />
            </Array>
          </mxGeometry>
        </mxCell>
        <mxCell id="zgXLXJdNspanAzjS0xrs-7" value="(현재 원소) = (첫 번째 원소)" style="rounded=0;whiteSpace=wrap;html=1;" vertex="1" parent="WIyWlLk6GJQsqaUBKTNV-1">
          <mxGeometry x="311" y="403" width="205" height="50" as="geometry" />
        </mxCell>
        <mxCell id="zgXLXJdNspanAzjS0xrs-31" style="edgeStyle=orthogonalEdgeStyle;rounded=0;orthogonalLoop=1;jettySize=auto;html=1;exitX=0.5;exitY=1;exitDx=0;exitDy=0;" edge="1" parent="WIyWlLk6GJQsqaUBKTNV-1" source="zgXLXJdNspanAzjS0xrs-8" target="zgXLXJdNspanAzjS0xrs-9">
          <mxGeometry relative="1" as="geometry" />
        </mxCell>
        <mxCell id="zgXLXJdNspanAzjS0xrs-8" value="지정한 문자열의 개수만큼 &lt;br&gt;임의 문자열을 만듬" style="rounded=0;whiteSpace=wrap;html=1;" vertex="1" parent="WIyWlLk6GJQsqaUBKTNV-1">
          <mxGeometry x="75" y="580" width="205" height="50" as="geometry" />
        </mxCell>
        <mxCell id="zgXLXJdNspanAzjS0xrs-32" style="edgeStyle=orthogonalEdgeStyle;rounded=0;orthogonalLoop=1;jettySize=auto;html=1;exitX=0.5;exitY=1;exitDx=0;exitDy=0;entryX=0.5;entryY=0;entryDx=0;entryDy=0;" edge="1" parent="WIyWlLk6GJQsqaUBKTNV-1" source="zgXLXJdNspanAzjS0xrs-9" target="zgXLXJdNspanAzjS0xrs-10">
          <mxGeometry relative="1" as="geometry" />
        </mxCell>
        <mxCell id="zgXLXJdNspanAzjS0xrs-9" value="(현재 원소)에서 지정한 문자열들을 자신에 해당하는 임의 문자열로 치환" style="rounded=0;whiteSpace=wrap;html=1;" vertex="1" parent="WIyWlLk6GJQsqaUBKTNV-1">
          <mxGeometry x="75" y="650" width="205" height="50" as="geometry" />
        </mxCell>
        <mxCell id="zgXLXJdNspanAzjS0xrs-33" style="edgeStyle=orthogonalEdgeStyle;rounded=0;orthogonalLoop=1;jettySize=auto;html=1;exitX=0.5;exitY=1;exitDx=0;exitDy=0;entryX=0.5;entryY=0;entryDx=0;entryDy=0;" edge="1" parent="WIyWlLk6GJQsqaUBKTNV-1" source="zgXLXJdNspanAzjS0xrs-10" target="zgXLXJdNspanAzjS0xrs-12">
          <mxGeometry relative="1" as="geometry" />
        </mxCell>
        <mxCell id="zgXLXJdNspanAzjS0xrs-10" value="(현재 원소)를 임의 길이로 분할" style="rounded=0;whiteSpace=wrap;html=1;" vertex="1" parent="WIyWlLk6GJQsqaUBKTNV-1">
          <mxGeometry x="75" y="720" width="205" height="50" as="geometry" />
        </mxCell>
        <mxCell id="zgXLXJdNspanAzjS0xrs-35" style="edgeStyle=orthogonalEdgeStyle;rounded=0;orthogonalLoop=1;jettySize=auto;html=1;exitX=0.5;exitY=1;exitDx=0;exitDy=0;entryX=0.5;entryY=0;entryDx=0;entryDy=0;" edge="1" parent="WIyWlLk6GJQsqaUBKTNV-1" source="zgXLXJdNspanAzjS0xrs-11" target="zgXLXJdNspanAzjS0xrs-13">
          <mxGeometry relative="1" as="geometry" />
        </mxCell>
        <mxCell id="zgXLXJdNspanAzjS0xrs-11" value="각각을 서로 다른 선언 코드로 변경" style="rounded=0;whiteSpace=wrap;html=1;" vertex="1" parent="WIyWlLk6GJQsqaUBKTNV-1">
          <mxGeometry x="75" y="860" width="205" height="50" as="geometry" />
        </mxCell>
        <mxCell id="zgXLXJdNspanAzjS0xrs-34" style="edgeStyle=orthogonalEdgeStyle;rounded=0;orthogonalLoop=1;jettySize=auto;html=1;exitX=0.5;exitY=1;exitDx=0;exitDy=0;entryX=0.5;entryY=0;entryDx=0;entryDy=0;" edge="1" parent="WIyWlLk6GJQsqaUBKTNV-1" source="zgXLXJdNspanAzjS0xrs-12" target="zgXLXJdNspanAzjS0xrs-11">
          <mxGeometry relative="1" as="geometry" />
        </mxCell>
        <mxCell id="zgXLXJdNspanAzjS0xrs-12" value="분할된 개수만큼 분할된 문자열을 활용해 sha256으로 식별자를 만듬" style="rounded=0;whiteSpace=wrap;html=1;" vertex="1" parent="WIyWlLk6GJQsqaUBKTNV-1">
          <mxGeometry x="75" y="790" width="205" height="50" as="geometry" />
        </mxCell>
        <mxCell id="zgXLXJdNspanAzjS0xrs-36" style="edgeStyle=orthogonalEdgeStyle;rounded=0;orthogonalLoop=1;jettySize=auto;html=1;exitX=0.5;exitY=1;exitDx=0;exitDy=0;entryX=0.5;entryY=0;entryDx=0;entryDy=0;" edge="1" parent="WIyWlLk6GJQsqaUBKTNV-1" source="zgXLXJdNspanAzjS0xrs-13" target="zgXLXJdNspanAzjS0xrs-14">
          <mxGeometry relative="1" as="geometry" />
        </mxCell>
        <mxCell id="zgXLXJdNspanAzjS0xrs-13" value="만들어진 식별자들 사이에 &#39;+&#39; 기호를 넣어 하나의 문자열로 변경" style="rounded=0;whiteSpace=wrap;html=1;" vertex="1" parent="WIyWlLk6GJQsqaUBKTNV-1">
          <mxGeometry x="75" y="930" width="205" height="50" as="geometry" />
        </mxCell>
        <mxCell id="zgXLXJdNspanAzjS0xrs-37" style="edgeStyle=orthogonalEdgeStyle;rounded=0;orthogonalLoop=1;jettySize=auto;html=1;exitX=0.5;exitY=1;exitDx=0;exitDy=0;" edge="1" parent="WIyWlLk6GJQsqaUBKTNV-1" source="zgXLXJdNspanAzjS0xrs-14" target="zgXLXJdNspanAzjS0xrs-15">
          <mxGeometry relative="1" as="geometry" />
        </mxCell>
        <mxCell id="zgXLXJdNspanAzjS0xrs-14" value="해당 문자열 뒤에 치환한 개수 만큼 &#39;.replace(/(치환된 임의 문자열)/g, (원래 문자열))&#39; 형태의 코드를 연접" style="rounded=0;whiteSpace=wrap;html=1;" vertex="1" parent="WIyWlLk6GJQsqaUBKTNV-1">
          <mxGeometry x="75" y="1000" width="205" height="50" as="geometry" />
        </mxCell>
        <mxCell id="zgXLXJdNspanAzjS0xrs-39" style="edgeStyle=orthogonalEdgeStyle;rounded=0;orthogonalLoop=1;jettySize=auto;html=1;exitX=1;exitY=0.5;exitDx=0;exitDy=0;entryX=0;entryY=0.5;entryDx=0;entryDy=0;" edge="1" parent="WIyWlLk6GJQsqaUBKTNV-1" source="zgXLXJdNspanAzjS0xrs-15" target="zgXLXJdNspanAzjS0xrs-38">
          <mxGeometry relative="1" as="geometry" />
        </mxCell>
        <mxCell id="zgXLXJdNspanAzjS0xrs-15" value="만들어진 하나의 문자열을 eval()을 뜻하는 코드 내에 런타임에 때 실행이 되도록 삽입" style="rounded=0;whiteSpace=wrap;html=1;" vertex="1" parent="WIyWlLk6GJQsqaUBKTNV-1">
          <mxGeometry x="75" y="1070" width="205" height="50" as="geometry" />
        </mxCell>
        <mxCell id="zgXLXJdNspanAzjS0xrs-30" style="edgeStyle=orthogonalEdgeStyle;rounded=0;orthogonalLoop=1;jettySize=auto;html=1;exitX=0.5;exitY=1;exitDx=0;exitDy=0;exitPerimeter=0;entryX=0.5;entryY=0;entryDx=0;entryDy=0;" edge="1" parent="WIyWlLk6GJQsqaUBKTNV-1" source="zgXLXJdNspanAzjS0xrs-28" target="zgXLXJdNspanAzjS0xrs-8">
          <mxGeometry relative="1" as="geometry" />
        </mxCell>
        <mxCell id="zgXLXJdNspanAzjS0xrs-44" style="edgeStyle=orthogonalEdgeStyle;rounded=0;orthogonalLoop=1;jettySize=auto;html=1;exitX=1;exitY=0.5;exitDx=0;exitDy=0;exitPerimeter=0;entryX=0;entryY=0.5;entryDx=0;entryDy=0;" edge="1" parent="WIyWlLk6GJQsqaUBKTNV-1" source="zgXLXJdNspanAzjS0xrs-28" target="zgXLXJdNspanAzjS0xrs-42">
          <mxGeometry relative="1" as="geometry" />
        </mxCell>
        <mxCell id="zgXLXJdNspanAzjS0xrs-28" value="(현재 원소)가 변경됨" style="strokeWidth=2;html=1;shape=mxgraph.flowchart.decision;whiteSpace=wrap;" vertex="1" parent="WIyWlLk6GJQsqaUBKTNV-1">
          <mxGeometry x="77.5" y="480" width="200" height="70" as="geometry" />
        </mxCell>
        <mxCell id="zgXLXJdNspanAzjS0xrs-29" style="edgeStyle=orthogonalEdgeStyle;rounded=0;orthogonalLoop=1;jettySize=auto;html=1;exitX=0.5;exitY=1;exitDx=0;exitDy=0;exitPerimeter=0;entryX=0.5;entryY=0;entryDx=0;entryDy=0;entryPerimeter=0;" edge="1" parent="WIyWlLk6GJQsqaUBKTNV-1" source="zgXLXJdNspanAzjS0xrs-6" target="zgXLXJdNspanAzjS0xrs-28">
          <mxGeometry relative="1" as="geometry" />
        </mxCell>
        <mxCell id="zgXLXJdNspanAzjS0xrs-40" style="edgeStyle=orthogonalEdgeStyle;rounded=0;orthogonalLoop=1;jettySize=auto;html=1;exitX=0.5;exitY=0;exitDx=0;exitDy=0;" edge="1" parent="WIyWlLk6GJQsqaUBKTNV-1" source="zgXLXJdNspanAzjS0xrs-38">
          <mxGeometry relative="1" as="geometry">
            <mxPoint x="180" y="470" as="targetPoint" />
            <Array as="points">
              <mxPoint x="413" y="770" />
              <mxPoint x="413" y="770" />
            </Array>
          </mxGeometry>
        </mxCell>
        <mxCell id="zgXLXJdNspanAzjS0xrs-38" value="다음 요소를 찾아 이것으로 (현재 원소)를 변경" style="rounded=0;whiteSpace=wrap;html=1;" vertex="1" parent="WIyWlLk6GJQsqaUBKTNV-1">
          <mxGeometry x="311" y="1070" width="205" height="50" as="geometry" />
        </mxCell>
        <mxCell id="zgXLXJdNspanAzjS0xrs-41" value="(이전 코드) + (선언 코드) + (이후 코드) 차례로 연접" style="rounded=0;whiteSpace=wrap;html=1;" vertex="1" parent="WIyWlLk6GJQsqaUBKTNV-1">
          <mxGeometry x="440" y="560" width="205" height="50" as="geometry" />
        </mxCell>
        <mxCell id="zgXLXJdNspanAzjS0xrs-45" style="edgeStyle=orthogonalEdgeStyle;rounded=0;orthogonalLoop=1;jettySize=auto;html=1;exitX=0.5;exitY=1;exitDx=0;exitDy=0;entryX=0.5;entryY=0;entryDx=0;entryDy=0;" edge="1" parent="WIyWlLk6GJQsqaUBKTNV-1" source="zgXLXJdNspanAzjS0xrs-42" target="zgXLXJdNspanAzjS0xrs-41">
          <mxGeometry relative="1" as="geometry" />
        </mxCell>
        <mxCell id="zgXLXJdNspanAzjS0xrs-42" value="(이후 코드)를 하나의 문자열로 변환" style="rounded=0;whiteSpace=wrap;html=1;" vertex="1" parent="WIyWlLk6GJQsqaUBKTNV-1">
          <mxGeometry x="440" y="490" width="205" height="50" as="geometry" />
        </mxCell>
        <mxCell id="zgXLXJdNspanAzjS0xrs-43" value="종료" style="strokeWidth=2;html=1;shape=mxgraph.flowchart.terminator;whiteSpace=wrap;" vertex="1" parent="WIyWlLk6GJQsqaUBKTNV-1">
          <mxGeometry x="507.5" y="630" width="70" height="40" as="geometry" />
        </mxCell>
        <mxCell id="zgXLXJdNspanAzjS0xrs-46" style="edgeStyle=orthogonalEdgeStyle;rounded=0;orthogonalLoop=1;jettySize=auto;html=1;exitX=0.5;exitY=1;exitDx=0;exitDy=0;entryX=0.5;entryY=0;entryDx=0;entryDy=0;entryPerimeter=0;" edge="1" parent="WIyWlLk6GJQsqaUBKTNV-1" source="zgXLXJdNspanAzjS0xrs-41" target="zgXLXJdNspanAzjS0xrs-43">
          <mxGeometry relative="1" as="geometry" />
        </mxCell>
        <mxCell id="zgXLXJdNspanAzjS0xrs-47" value="Yes" style="text;html=1;align=center;verticalAlign=middle;resizable=0;points=[];autosize=1;strokeColor=none;fillColor=none;" vertex="1" parent="WIyWlLk6GJQsqaUBKTNV-1">
          <mxGeometry x="260" y="403" width="40" height="30" as="geometry" />
        </mxCell>
        <mxCell id="zgXLXJdNspanAzjS0xrs-48" value="No" style="text;html=1;align=center;verticalAlign=middle;resizable=0;points=[];autosize=1;strokeColor=none;fillColor=none;" vertex="1" parent="WIyWlLk6GJQsqaUBKTNV-1">
          <mxGeometry x="140" y="453" width="40" height="30" as="geometry" />
        </mxCell>
        <mxCell id="zgXLXJdNspanAzjS0xrs-49" value="No" style="text;html=1;align=center;verticalAlign=middle;resizable=0;points=[];autosize=1;strokeColor=none;fillColor=none;" vertex="1" parent="WIyWlLk6GJQsqaUBKTNV-1">
          <mxGeometry x="271" y="490" width="40" height="30" as="geometry" />
        </mxCell>
        <mxCell id="zgXLXJdNspanAzjS0xrs-50" value="Yes" style="text;html=1;align=center;verticalAlign=middle;resizable=0;points=[];autosize=1;strokeColor=none;fillColor=none;" vertex="1" parent="WIyWlLk6GJQsqaUBKTNV-1">
          <mxGeometry x="140" y="540" width="40" height="30" as="geometry" />
        </mxCell>
      </root>
    </mxGraphModel>
  </diagram>
</mxfile>
